  0
SECTION
  2
HEADER
  9
$ACADVER
  1
AC1014
  9
$HANDSEED
  5
FFFF
  9
$MEASUREMENT
 70
     1
  0
ENDSEC
  0
SECTION
  2
TABLES
  0
TABLE
  2
VPORT
  5
8
330
0
100
AcDbSymbolTable
 70
     4
  0
VPORT
  5
2E
330
8
100
AcDbSymbolTableRecord
100
AcDbViewportTableRecord
  2
*ACTIVE
 70
     0
 10
0.0
 20
0.0
 11
1.0
 21
1.0
 12
210.0
 22
148.5
 13
0.0
 23
0.0
 14
10.0
 24
10.0
 15
10.0
 25
10.0
 16
0.0
 26
0.0
 36
1.0
 17
0.0
 27
0.0
 37
0.0
 40
341.0
 41
1.24
 42
50.0
 43
0.0
 44
0.0
 50
0.0
 51
0.0
 71
     0
 72
   100
 73
     1
 74
     3
 75
     0
 76
     0
 77
     0
 78
     0
  0
ENDTAB
  0
TABLE
  2
LTYPE
  5
5
330
0
100
AcDbSymbolTable
 70
     1
  0
LTYPE
  5
14
330
5
100
AcDbSymbolTableRecord
100
AcDbLinetypeTableRecord
  2
BYBLOCK
 70
     0
  3

 72
    65
 73
     0
 40
0.0
  0
LTYPE
  5
15
330
5
100
AcDbSymbolTableRecord
100
AcDbLinetypeTableRecord
  2
BYLAYER
 70
     0
  3

 72
    65
 73
     0
 40
0.0
  0
LTYPE
  5
16
330
5
100
AcDbSymbolTableRecord
100
AcDbLinetypeTableRecord
  2
CONTINUOUS
 70
     0
  3
Solid line
 72
    65
 73
     0
 40
0.0
  0
ENDTAB
  0
TABLE
  2
LAYER
  5
2
100
AcDbSymbolTable
 70
2
  0
LAYER
  5
50
100
AcDbSymbolTableRecord
100
AcDbLayerTableRecord
  2
0
 70
0
  6
CONTINUOUS
  0
LAYER
  5
51
100
AcDbSymbolTableRecord
100
AcDbLayerTableRecord
  2
Capa_1
 70
0
  6
CONTINUOUS
  0
ENDTAB
  0
TABLE
  2
STYLE
  5
3
330
0
100
AcDbSymbolTable
 70
     1
  0
STYLE
  5
11
330
3
100
AcDbSymbolTableRecord
100
AcDbTextStyleTableRecord
  2
STANDARD
 70
     0
 40
0.0
 41
1.0
 50
0.0
 71
     0
 42
2.5
  3
txt
  4

  0
ENDTAB
  0
TABLE
  2
VIEW
  5
6
330
0
100
AcDbSymbolTable
 70
     0
  0
ENDTAB
  0
TABLE
  2
UCS
  5
7
330
0
100
AcDbSymbolTable
 70
     0
  0
ENDTAB
  0
TABLE
  2
APPID
  5
9
330
0
100
AcDbSymbolTable
 70
     2
  0
APPID
  5
12
330
9
100
AcDbSymbolTableRecord
100
AcDbRegAppTableRecord
  2
ACAD
 70
     0
  0
ENDTAB
  0
TABLE
  2
DIMSTYLE
  5
A
330
0
100
AcDbSymbolTable
 70
     1
  0
DIMSTYLE
105
27
330
A
100
AcDbSymbolTableRecord
100
AcDbDimStyleTableRecord
  2
ISO-25
 70
     0
  3

  4

  5

  6

  7

 40
1.0
 41
2.5
 42
0.625
 43
3.75
 44
1.25
 45
0.0
 46
0.0
 47
0.0
 48
0.0
140
2.5
141
2.5
142
0.0
143
0.03937007874016
144
1.0
145
0.0
146
1.0
147
0.625
 71
     0
 72
     0
 73
     0
 74
     0
 75
     0
 76
     0
 77
     1
 78
     8
170
     0
171
     3
172
     1
173
     0
174
     0
175
     0
176
     0
177
     0
178
     0
270
     2
271
     2
272
     2
273
     2
274
     3
340
11
275
     0
280
     0
281
     0
282
     0
283
     0
284
     8
285
     0
286
     0
287
     3
288
     0
  0
ENDTAB
  0
TABLE
  2
BLOCK_RECORD
  5
1
330
0
100
AcDbSymbolTable
 70
     1
  0
BLOCK_RECORD
  5
1F
330
1
100
AcDbSymbolTableRecord
100
AcDbBlockTableRecord
  2
*MODEL_SPACE
  0
BLOCK_RECORD
  5
1B
330
1
100
AcDbSymbolTableRecord
100
AcDbBlockTableRecord
  2
*PAPER_SPACE
  0
ENDTAB
  0
ENDSEC
  0
SECTION
  2
BLOCKS
  0
BLOCK
  5
20
330
1F
100
AcDbEntity
  8
0
100
AcDbBlockBegin
  2
*MODEL_SPACE
 70
     0
 10
0.0
 20
0.0
 30
0.0
  3
*MODEL_SPACE
  1

  0
ENDBLK
  5
21
330
1F
100
AcDbEntity
  8
0
100
AcDbBlockEnd
  0
BLOCK
  5
1C
330
1B
100
AcDbEntity
 67
     1
  8
0
100
AcDbBlockBegin
  2
*PAPER_SPACE
  1

  0
ENDBLK
  5
1D
330
1B
100
AcDbEntity
 67
     1
  8
0
100
AcDbBlockEnd
  0
ENDSEC
  0
SECTION
  2
ENTITIES
  0
LWPOLYLINE
  5
100
100
AcDbEntity
  8
Capa_1
 62
7
100
AcDbPolyline
 90
26
 70
0
 10
-40.351845
 20
18.598884
 30
0.0
 10
-40.942335
 20
18.476804
 30
0.0
 10
-41.527027
 20
18.162244
 30
0.0
 10
-42.072357
 20
17.678964
 30
0.0
 10
-42.544759
 20
17.050644
 30
0.0
 10
-42.910668
 20
16.301044
 30
0.0
 10
-43.136523
 20
15.453764
 30
0.0
 10
-43.188755
 20
14.532644
 30
0.0
 10
-43.139275
 20
14.051844
 30
0.0
 10
-43.033804
 20
13.561364
 30
0.0
 10
-42.815707
 20
12.964324
 30
0.0
 10
-42.426767
 20
12.135604
 30
0.0
 10
-41.189959
 20
9.917764
 30
0.0
 10
-40.237602
 20
10.447924
 30
0.0
 10
-38.836034
 20
11.386884
 30
0.0
 10
-38.059362
 20
12.003204
 30
0.0
 10
-37.281477
 20
12.713924
 30
0.0
 10
-36.539396
 20
13.516484
 30
0.0
 10
-35.870158
 20
14.408324
 30
0.0
 10
-37.505974
 20
16.122564
 30
0.0
 10
-39.178489
 20
18.051924
 30
0.0
 10
-39.437476
 20
18.304724
 30
0.0
 10
-39.723734
 20
18.477524
 30
0.0
 10
-40.030710
 20
18.574244
 30
0.0
 10
-40.351848
 20
18.599044
 30
0.0
 10
-40.351848
 20
18.599044
 30
0.0
  0
LWPOLYLINE
  5
101
100
AcDbEntity
  8
Capa_1
 62
7
100
AcDbPolyline
 90
167
 70
0
 10
9.541308
 20
15.598564
 30
0.0
 10
10.042695
 20
15.410804
 30
0.0
 10
10.453512
 20
15.201844
 30
0.0
 10
10.781058
 20
14.974884
 30
0.0
 10
11.032662
 20
14.733284
 30
0.0
 10
11.215619
 20
14.480244
 30
0.0
 10
11.337254
 20
14.219044
 30
0.0
 10
11.425786
 20
13.685124
 30
0.0
 10
11.383578
 20
13.419284
 30
0.0
 10
11.259688
 20
13.161124
 30
0.0
 10
11.058226
 20
12.911844
 30
0.0
 10
10.783294
 20
12.672804
 30
0.0
 10
10.029433
 20
12.230724
 30
0.0
 10
9.030949
 20
11.845444
 30
0.0
 10
7.820684
 20
11.527444
 30
0.0
 10
6.431475
 20
11.287284
 30
0.0
 10
4.896163
 20
11.135444
 30
0.0
 10
3.247584
 20
11.082644
 30
0.0
 10
1.598627
 20
11.135444
 30
0.0
 10
0.062315
 20
11.287284
 30
0.0
 10
-1.328304
 20
11.527444
 30
0.0
 10
-2.540193
 20
11.845444
 30
0.0
 10
-3.540294
 20
12.230724
 30
0.0
 10
-4.295564
 20
12.672804
 30
0.0
 10
-4.571066
 20
12.911844
 30
0.0
 10
-4.772964
 20
13.161124
 30
0.0
 10
-4.897130
 20
13.419284
 30
0.0
 10
-4.939440
 20
13.685124
 30
0.0
 10
-4.853343
 20
14.060404
 30
0.0
 10
-4.603986
 20
14.418484
 30
0.0
 10
-4.204753
 20
14.756164
 30
0.0
 10
-3.669039
 20
15.070164
 30
0.0
 10
-6.162872
 20
14.640244
 30
0.0
 10
-8.463968
 20
14.138884
 30
0.0
 10
-10.579765
 20
13.574484
 30
0.0
 10
-12.517733
 20
12.955604
 30
0.0
 10
-14.285317
 20
12.290564
 30
0.0
 10
-15.889982
 20
11.587844
 30
0.0
 10
-17.339173
 20
10.855924
 30
0.0
 10
-18.640354
 20
10.103284
 30
0.0
 10
-19.231443
 20
9.715124
 30
0.0
 10
-19.407888
 20
9.591604
 30
0.0
 10
-19.787243
 20
9.300404
 30
0.0
 10
-19.972510
 20
9.150484
 30
0.0
 10
-20.325399
 20
8.850484
 30
0.0
 10
-20.493021
 20
8.700484
 30
0.0
 10
-20.828265
 20
8.382884
 30
0.0
 10
-20.969421
 20
8.241764
 30
0.0
 10
-21.304665
 20
7.888884
 30
0.0
 10
-21.419355
 20
7.756564
 30
0.0
 10
-21.754599
 20
7.368404
 30
0.0
 10
-21.842821
 20
7.271284
 30
0.0
 10
-22.186888
 20
6.830244
 30
0.0
 10
-22.239824
 20
6.768644
 30
0.0
 10
-22.601535
 20
6.265764
 30
0.0
 10
-22.601535
 20
6.256964
 30
0.0
 10
-23.926184
 20
6.598804
 30
0.0
 10
-25.352968
 20
7.078404
 30
0.0
 10
-26.870724
 20
7.716324
 30
0.0
 10
-28.468314
 20
8.533124
 30
0.0
 10
-28.854191
 20
7.380724
 30
0.0
 10
-29.392022
 20
6.285684
 30
0.0
 10
-30.060035
 20
5.249284
 30
0.0
 10
-30.836461
 20
4.273124
 30
0.0
 10
-31.699535
 20
3.358564
 30
0.0
 10
-32.627483
 20
2.507044
 30
0.0
 10
-33.598543
 20
1.720004
 30
0.0
 10
-34.590937
 20
0.998964
 30
0.0
 10
-32.512652
 20
-1.300076
 30
0.0
 10
-31.425668
 20
-2.386556
 30
0.0
 10
-30.312687
 20
-3.413836
 30
0.0
 10
-29.178134
 20
-4.369276
 30
0.0
 10
-28.026440
 20
-5.239996
 30
0.0
 10
-26.862026
 20
-6.013276
 30
0.0
 10
-25.689314
 20
-6.676396
 30
0.0
 10
-25.671666
 20
-12.481436
 30
0.0
 10
-25.645210
 20
-21.241836
 30
0.0
 10
-24.401832
 20
-21.345276
 30
0.0
 10
-23.203350
 20
-21.589676
 30
0.0
 10
-22.059056
 20
-21.966796
 30
0.0
 10
-20.978252
 20
-22.468156
 30
0.0
 10
-20.934140
 20
-22.468156
 30
0.0
 10
-20.528581
 20
-21.139676
 30
0.0
 10
-20.018600
 20
-19.860476
 30
0.0
 10
-19.409208
 20
-18.635516
 30
0.0
 10
-18.705401
 20
-17.469996
 30
0.0
 10
-17.912200
 20
-16.368716
 30
0.0
 10
-17.034608
 20
-15.336876
 30
0.0
 10
-16.077629
 20
-14.379436
 30
0.0
 10
-15.046276
 20
-13.501516
 30
0.0
 10
-13.945556
 20
-12.707916
 30
0.0
 10
-12.780475
 20
-12.003916
 30
0.0
 10
-11.556040
 20
-11.394396
 30
0.0
 10
-10.277266
 20
-10.884396
 30
0.0
 10
-8.949159
 20
-10.479036
 30
0.0
 10
-7.576717
 20
-10.183276
 30
0.0
 10
-6.164961
 20
-10.002076
 30
0.0
 10
-4.718893
 20
-9.940476
 30
0.0
 10
-3.579959
 20
-9.978876
 30
0.0
 10
-2.461448
 20
-10.091516
 30
0.0
 10
-1.365784
 20
-10.276236
 30
0.0
 10
-0.295409
 20
-10.530556
 30
0.0
 10
0.747225
 20
-10.852076
 30
0.0
 10
1.759683
 20
-11.238396
 30
0.0
 10
2.739529
 20
-11.687036
 30
0.0
 10
3.684323
 20
-12.195596
 30
0.0
 10
4.591614
 20
-12.761596
 30
0.0
 10
5.458973
 20
-13.382636
 30
0.0
 10
6.283957
 20
-14.056236
 30
0.0
 10
7.064121
 20
-14.779996
 30
0.0
 10
7.797029
 20
-15.551516
 30
0.0
 10
8.480236
 20
-16.368316
 30
0.0
 10
9.111306
 20
-17.227836
 30
0.0
 10
9.687800
 20
-18.127836
 30
0.0
 10
10.661096
 20
-17.330476
 30
0.0
 10
11.703671
 20
-16.621036
 30
0.0
 10
12.809936
 20
-16.005196
 30
0.0
 10
13.974311
 20
-15.488636
 30
0.0
 10
15.191202
 20
-15.077036
 30
0.0
 10
16.455030
 20
-14.775996
 30
0.0
 10
17.760200
 20
-14.591276
 30
0.0
 10
19.101127
 20
-14.528076
 30
0.0
 10
20.025436
 20
-14.557676
 30
0.0
 10
20.933761
 20
-14.645836
 30
0.0
 10
21.824272
 20
-14.790476
 30
0.0
 10
22.695146
 20
-14.989836
 30
0.0
 10
23.544561
 20
-15.241996
 30
0.0
 10
24.370685
 20
-15.545116
 30
0.0
 10
25.171692
 20
-15.897436
 30
0.0
 10
25.945761
 20
-16.297036
 30
0.0
 10
26.691063
 20
-16.742156
 30
0.0
 10
27.405776
 20
-17.230956
 30
0.0
 10
28.736123
 20
-18.331996
 30
0.0
 10
29.922191
 20
-19.585596
 30
0.0
 10
30.949377
 20
-20.976956
 30
0.0
 10
30.949377
 20
-7.593676
 30
0.0
 10
31.421384
 20
-6.453276
 30
0.0
 10
32.046712
 20
-5.379276
 30
0.0
 10
32.802096
 20
-4.372236
 30
0.0
 10
33.664282
 20
-3.432956
 30
0.0
 10
34.610024
 20
-2.562236
 30
0.0
 10
35.616060
 20
-1.760716
 30
0.0
 10
36.659149
 20
-1.029116
 30
0.0
 10
37.716024
 20
-0.368236
 30
0.0
 10
36.478179
 20
1.238324
 30
0.0
 10
35.179209
 20
2.786164
 30
0.0
 10
33.827065
 20
4.247124
 30
0.0
 10
32.429701
 20
5.593124
 30
0.0
 10
30.995067
 20
6.796004
 30
0.0
 10
29.531122
 20
7.827844
 30
0.0
 10
28.045810
 20
8.660324
 30
0.0
 10
27.297628
 20
8.993204
 30
0.0
 10
26.547084
 20
9.265604
 30
0.0
 10
25.631998
 20
10.008164
 30
0.0
 10
24.598847
 20
10.738244
 30
0.0
 10
23.440468
 20
11.448084
 30
0.0
 10
22.149690
 20
12.129764
 30
0.0
 10
20.719355
 20
12.775524
 30
0.0
 10
19.142288
 20
13.377284
 30
0.0
 10
17.411331
 20
13.927364
 30
0.0
 10
15.519304
 20
14.417844
 30
0.0
 10
15.175237
 20
14.497044
 30
0.0
 10
14.831171
 20
14.585284
 30
0.0
 10
14.248904
 20
14.708724
 30
0.0
 10
13.931304
 20
14.779124
 30
0.0
 10
9.541300
 20
15.598644
 30
0.0
 10
9.541300
 20
15.598644
 30
0.0
  0
LWPOLYLINE
  5
102
100
AcDbEntity
  8
Capa_1
 62
7
100
AcDbPolyline
 90
23
 70
0
 10
-34.440963
 20
13.023524
 30
0.0
 10
-35.275045
 20
12.042004
 30
0.0
 10
-36.629874
 20
10.672964
 30
0.0
 10
-37.446512
 20
9.975124
 30
0.0
 10
-38.326064
 20
9.338884
 30
0.0
 10
-39.246111
 20
8.817044
 30
0.0
 10
-40.184231
 20
8.462404
 30
0.0
 10
-39.183703
 20
6.944084
 30
0.0
 10
-38.055139
 20
5.338164
 30
0.0
 10
-36.811148
 20
3.677604
 30
0.0
 10
-35.464341
 20
1.995684
 30
0.0
 10
-34.526000
 20
2.723204
 30
0.0
 10
-33.622074
 20
3.513764
 30
0.0
 10
-32.777086
 20
4.367124
 30
0.0
 10
-32.015557
 20
5.282964
 30
0.0
 10
-31.362015
 20
6.261044
 30
0.0
 10
-30.840979
 20
7.300964
 30
0.0
 10
-30.476972
 20
8.402484
 30
0.0
 10
-30.294517
 20
9.565204
 30
0.0
 10
-30.268069
 20
9.679844
 30
0.0
 10
-32.311076
 20
11.185444
 30
0.0
 10
-34.440981
 20
13.023524
 30
0.0
 10
-34.440981
 20
13.023524
 30
0.0
  0
LWPOLYLINE
  5
103
100
AcDbEntity
  8
Capa_1
 62
7
100
AcDbPolyline
 90
25
 70
0
 10
38.633503
 20
-1.639036
 30
0.0
 10
37.629897
 20
-2.295596
 30
0.0
 10
36.652448
 20
-3.019596
 30
0.0
 10
35.726838
 20
-3.812236
 30
0.0
 10
34.878761
 20
-4.674796
 30
0.0
 10
34.133905
 20
-5.608396
 30
0.0
 10
33.517956
 20
-6.614076
 30
0.0
 10
33.056606
 20
-7.693196
 30
0.0
 10
32.775543
 20
-8.846796
 30
0.0
 10
32.757895
 20
-8.979116
 30
0.0
 10
34.686594
 20
-10.662156
 30
0.0
 10
35.673893
 20
-11.628956
 30
0.0
 10
36.674963
 20
-12.684476
 30
0.0
 10
37.253102
 20
-12.001196
 30
0.0
 10
37.787545
 20
-11.456476
 30
0.0
 10
38.481712
 20
-10.835276
 30
0.0
 10
39.332696
 20
-10.181596
 30
0.0
 10
40.337606
 20
-9.539596
 30
0.0
 10
41.493535
 20
-8.953596
 30
0.0
 10
42.797586
 20
-8.467436
 30
0.0
 10
41.923246
 20
-6.869276
 30
0.0
 10
40.932986
 20
-5.175916
 30
0.0
 10
39.834005
 20
-3.421196
 30
0.0
 10
38.633496
 20
-1.639036
 30
0.0
 10
38.633496
 20
-1.639036
 30
0.0
  0
LWPOLYLINE
  5
104
100
AcDbEntity
  8
Capa_1
 62
7
100
AcDbPolyline
 90
29
 70
0
 10
43.459253
 20
-9.755516
 30
0.0
 10
42.541739
 20
-10.216236
 30
0.0
 10
40.895111
 20
-11.152156
 30
0.0
 10
39.976112
 20
-11.749996
 30
0.0
 10
39.088116
 20
-12.408636
 30
0.0
 10
38.302224
 20
-13.108876
 30
0.0
 10
37.689518
 20
-13.831356
 30
0.0
 10
39.227945
 20
-15.728876
 30
0.0
 10
40.786119
 20
-17.854316
 30
0.0
 10
41.063360
 20
-18.163676
 30
0.0
 10
41.383275
 20
-18.370876
 30
0.0
 10
41.736421
 20
-18.481356
 30
0.0
 10
42.113363
 20
-18.500556
 30
0.0
 10
42.504655
 20
-18.434156
 30
0.0
 10
42.900861
 20
-18.287756
 30
0.0
 10
43.292532
 20
-18.066796
 30
0.0
 10
43.670238
 20
-17.776716
 30
0.0
 10
44.024533
 20
-17.423276
 30
0.0
 10
44.345972
 20
-17.011836
 30
0.0
 10
44.625124
 20
-16.548076
 30
0.0
 10
44.852540
 20
-16.037436
 30
0.0
 10
45.018788
 20
-15.485516
 30
0.0
 10
45.114421
 20
-14.897756
 30
0.0
 10
45.129973
 20
-14.279836
 30
0.0
 10
45.056053
 20
-13.637196
 30
0.0
 10
44.881170
 20
-13.009356
 30
0.0
 10
44.548133
 20
-12.129436
 30
0.0
 10
43.459231
 20
-9.755436
 30
0.0
 10
43.459231
 20
-9.755436
 30
0.0
  0
LWPOLYLINE
  5
105
100
AcDbEntity
  8
Capa_1
 62
7
100
AcDbPolyline
 90
72
 70
0
 10
6.646119
 20
16.335684
 30
0.0
 10
6.653631
 20
15.919444
 30
0.0
 10
6.602389
 20
15.498484
 30
0.0
 10
6.533835
 20
15.262884
 30
0.0
 10
6.425541
 20
15.021124
 30
0.0
 10
6.254277
 20
14.693124
 30
0.0
 10
6.052989
 20
14.343844
 30
0.0
 10
5.790959
 20
14.002484
 30
0.0
 10
5.627560
 20
13.843764
 30
0.0
 10
5.437452
 20
13.697844
 30
0.0
 10
5.104615
 20
13.500244
 30
0.0
 10
4.781996
 20
13.357124
 30
0.0
 10
4.471397
 20
13.259604
 30
0.0
 10
4.174600
 20
13.198804
 30
0.0
 10
3.629596
 20
13.150804
 30
0.0
 10
3.161318
 20
13.142004
 30
0.0
 10
2.776257
 20
13.150004
 30
0.0
 10
2.450724
 20
13.190004
 30
0.0
 10
2.180507
 20
13.253204
 30
0.0
 10
1.961382
 20
13.327604
 30
0.0
 10
1.372089
 20
13.560484
 30
0.0
 10
1.189064
 20
13.662244
 30
0.0
 10
0.752664
 20
14.015284
 30
0.0
 10
0.322973
 20
14.456644
 30
0.0
 10
0.020606
 20
14.853844
 30
0.0
 10
-0.162730
 20
15.250884
 30
0.0
 10
-0.308021
 20
15.694164
 30
0.0
 10
-0.438150
 20
16.218964
 30
0.0
 10
-0.606057
 20
16.186164
 30
0.0
 10
-1.365962
 20
15.994084
 30
0.0
 10
-2.037109
 20
15.771684
 30
0.0
 10
-2.609241
 20
15.522084
 30
0.0
 10
-3.072093
 20
15.248484
 30
0.0
 10
-3.415406
 20
14.954004
 30
0.0
 10
-3.539030
 20
14.800004
 30
0.0
 10
-3.628921
 20
14.642004
 30
0.0
 10
-3.683796
 20
14.480404
 30
0.0
 10
-3.702344
 20
14.315524
 30
0.0
 10
-3.665418
 20
14.083044
 30
0.0
 10
-3.557030
 20
13.857204
 30
0.0
 10
-3.380780
 20
13.639124
 30
0.0
 10
-3.140251
 20
13.430084
 30
0.0
 10
-2.839039
 20
13.231124
 30
0.0
 10
-2.480730
 20
13.043444
 30
0.0
 10
-2.068920
 20
12.868244
 30
0.0
 10
-1.607200
 20
12.706564
 30
0.0
 10
-0.548380
 20
12.428484
 30
0.0
 10
0.666989
 20
12.218484
 30
0.0
 10
2.010189
 20
12.085764
 30
0.0
 10
3.452480
 20
12.039364
 30
0.0
 10
4.895561
 20
12.085764
 30
0.0
 10
6.239944
 20
12.218484
 30
0.0
 10
7.456753
 20
12.428484
 30
0.0
 10
8.517097
 20
12.706564
 30
0.0
 10
8.979574
 20
12.868244
 30
0.0
 10
9.392096
 20
13.043444
 30
0.0
 10
9.751056
 20
13.231124
 30
0.0
 10
10.052856
 20
13.430084
 30
0.0
 10
10.293871
 20
13.639124
 30
0.0
 10
10.470493
 20
13.857204
 30
0.0
 10
10.579115
 20
14.083044
 30
0.0
 10
10.616123
 20
14.315524
 30
0.0
 10
10.594107
 20
14.494964
 30
0.0
 10
10.529139
 20
14.670484
 30
0.0
 10
10.422882
 20
14.841524
 30
0.0
 10
10.276989
 20
15.007684
 30
0.0
 10
10.093117
 20
15.168404
 30
0.0
 10
9.872920
 20
15.323284
 30
0.0
 10
9.330186
 20
15.612964
 30
0.0
 10
8.662023
 20
15.872884
 30
0.0
 10
7.881675
 20
16.098884
 30
0.0
 10
7.002386
 20
16.286964
 30
0.0
  0
LWPOLYLINE
  5
106
100
AcDbEntity
  8
Capa_1
 62
7
100
AcDbPolyline
 90
168
 70
0
 10
-34.979110
 20
45.797804
 30
0.0
 10
-35.458393
 20
45.776604
 30
0.0
 10
-35.911152
 20
45.709244
 30
0.0
 10
-36.335598
 20
45.597956
 30
0.0
 10
-36.729945
 20
45.445156
 30
0.0
 10
-37.092404
 20
45.253172
 30
0.0
 10
-37.421192
 20
45.024364
 30
0.0
 10
-37.714517
 20
44.761084
 30
0.0
 10
-37.970598
 20
44.465676
 30
0.0
 10
-38.187642
 20
44.140492
 30
0.0
 10
-38.363866
 20
43.787884
 30
0.0
 10
-38.497481
 20
43.410204
 30
0.0
 10
-38.586702
 20
43.009796
 30
0.0
 10
-38.629742
 20
42.589012
 30
0.0
 10
-38.624782
 20
42.150204
 30
0.0
 10
-38.570094
 20
41.695700
 30
0.0
 10
-38.463864
 20
41.227940
 30
0.0
 10
-37.352263
 20
37.257940
 30
0.0
 10
-37.775730
 20
36.305140
 30
0.0
 10
-36.214197
 20
35.096500
 30
0.0
 10
-35.978642
 20
35.212980
 30
0.0
 10
-35.728974
 20
35.255380
 30
0.0
 10
-35.440206
 20
35.202580
 30
0.0
 10
-35.171587
 20
35.052340
 30
0.0
 10
-34.928772
 20
34.814740
 30
0.0
 10
-34.717419
 20
34.500100
 30
0.0
 10
-34.543186
 20
34.118740
 30
0.0
 10
-34.411730
 20
33.681220
 30
0.0
 10
-34.328705
 20
33.197780
 30
0.0
 10
-34.299777
 20
32.678820
 30
0.0
 10
-34.328705
 20
32.159940
 30
0.0
 10
-34.411730
 20
31.676500
 30
0.0
 10
-34.543186
 20
31.238980
 30
0.0
 10
-34.717419
 20
30.857620
 30
0.0
 10
-34.928772
 20
30.542980
 30
0.0
 10
-35.171587
 20
30.305380
 30
0.0
 10
-35.440206
 20
30.155140
 30
0.0
 10
-35.728974
 20
30.103140
 30
0.0
 10
-35.916087
 20
30.124740
 30
0.0
 10
-36.095869
 20
30.188740
 30
0.0
 10
-36.427519
 20
30.430580
 30
0.0
 10
-36.712058
 20
30.806500
 30
0.0
 10
-36.937619
 20
31.294180
 30
0.0
 10
-38.410930
 20
32.802740
 30
0.0
 10
-38.419738
 20
32.476340
 30
0.0
 10
-38.341258
 20
31.077220
 30
0.0
 10
-38.116152
 20
29.773940
 30
0.0
 10
-37.759946
 20
28.594580
 30
0.0
 10
-37.288158
 20
27.566980
 30
0.0
 10
-37.013772
 20
27.118820
 30
0.0
 10
-36.716312
 20
26.719140
 30
0.0
 10
-36.397715
 20
26.371300
 30
0.0
 10
-36.059924
 20
26.078900
 30
0.0
 10
-35.704876
 20
25.845460
 30
0.0
 10
-35.334514
 20
25.674340
 30
0.0
 10
-34.950780
 20
25.569140
 30
0.0
 10
-34.555606
 20
25.533140
 30
0.0
 10
-34.160377
 20
25.569140
 30
0.0
 10
-33.776597
 20
25.674340
 30
0.0
 10
-33.406205
 20
25.845460
 30
0.0
 10
-33.051142
 20
26.078900
 30
0.0
 10
-32.713342
 20
26.371300
 30
0.0
 10
-32.394746
 20
26.719140
 30
0.0
 10
-32.097294
 20
27.118820
 30
0.0
 10
-31.822922
 20
27.566980
 30
0.0
 10
-31.351174
 20
28.594580
 30
0.0
 10
-30.995014
 20
29.773940
 30
0.0
 10
-30.769944
 20
31.077220
 30
0.0
 10
-30.691472
 20
32.476340
 30
0.0
 10
-30.769944
 20
33.875380
 30
0.0
 10
-30.995014
 20
35.178580
 30
0.0
 10
-31.351174
 20
36.357940
 30
0.0
 10
-31.822922
 20
37.385540
 30
0.0
 10
-32.097294
 20
37.833700
 30
0.0
 10
-32.394746
 20
38.233460
 30
0.0
 10
-32.713342
 20
38.581300
 30
0.0
 10
-33.051142
 20
38.873700
 30
0.0
 10
-33.406205
 20
39.107220
 30
0.0
 10
-33.776597
 20
39.278340
 30
0.0
 10
-34.160377
 20
39.383540
 30
0.0
 10
-34.555606
 20
39.419540
 30
0.0
 10
-35.064636
 20
39.360340
 30
0.0
 10
-35.552986
 20
39.187780
 30
0.0
 10
-36.016838
 20
38.908260
 30
0.0
 10
-36.452385
 20
38.528340
 30
0.0
 10
-36.146554
 20
38.988500
 30
0.0
 10
-35.818494
 20
39.398340
 30
0.0
 10
-35.469919
 20
39.754500
 30
0.0
 10
-35.102542
 20
40.053540
 30
0.0
 10
-34.718077
 20
40.292020
 30
0.0
 10
-34.318239
 20
40.466580
 30
0.0
 10
-33.904741
 20
40.573860
 30
0.0
 10
-33.479295
 20
40.610660
 30
0.0
 10
-33.027637
 20
40.569860
 30
0.0
 10
-32.588968
 20
40.449700
 30
0.0
 10
-32.165515
 20
40.254340
 30
0.0
 10
-31.759510
 20
39.987700
 30
0.0
 10
-31.373175
 20
39.653780
 30
0.0
 10
-31.008745
 20
39.256660
 30
0.0
 10
-30.668447
 20
38.800180
 30
0.0
 10
-30.354509
 20
38.288340
 30
0.0
 10
-30.069157
 20
37.725220
 30
0.0
 10
-29.814622
 20
37.114660
 30
0.0
 10
-29.593135
 20
36.460740
 30
0.0
 10
-29.406920
 20
35.767380
 30
0.0
 10
-29.258204
 20
35.038660
 30
0.0
 10
-29.149223
 20
34.278420
 30
0.0
 10
-29.082199
 20
33.490740
 30
0.0
 10
-29.059359
 20
32.679540
 30
0.0
 10
-29.082199
 20
31.868420
 30
0.0
 10
-29.149223
 20
31.080740
 30
0.0
 10
-29.258207
 20
30.320500
 30
0.0
 10
-29.406920
 20
29.591780
 30
0.0
 10
-29.593135
 20
28.898420
 30
0.0
 10
-29.814625
 20
28.244500
 30
0.0
 10
-30.069160
 20
27.633940
 30
0.0
 10
-30.354509
 20
27.070820
 30
0.0
 10
-30.668447
 20
26.558980
 30
0.0
 10
-31.008748
 20
26.102500
 30
0.0
 10
-31.373178
 20
25.705300
 30
0.0
 10
-31.759510
 20
25.371460
 30
0.0
 10
-32.165515
 20
25.104820
 30
0.0
 10
-32.588968
 20
24.909460
 30
0.0
 10
-33.027637
 20
24.789300
 30
0.0
 10
-33.479295
 20
24.748500
 30
0.0
 10
-33.691029
 20
24.757300
 30
0.0
 10
-33.228578
 20
24.044740
 30
0.0
 10
-32.670237
 20
23.390020
 30
0.0
 10
-32.030604
 20
22.804500
 30
0.0
 10
-31.324287
 20
22.299380
 30
0.0
 10
-30.565886
 20
21.885860
 30
0.0
 10
-29.770003
 20
21.575220
 30
0.0
 10
-28.951244
 20
21.378820
 30
0.0
 10
-28.124205
 20
21.307620
 30
0.0
 10
-20.007759
 20
21.307620
 30
0.0
 10
-20.486434
 20
21.334020
 30
0.0
 10
-20.963704
 20
21.405220
 30
0.0
 10
-21.902112
 20
21.672260
 30
0.0
 10
-22.799167
 20
22.091060
 30
0.0
 10
-23.631049
 20
22.643220
 30
0.0
 10
-24.373934
 20
23.310260
 30
0.0
 10
-25.004007
 20
24.073780
 30
0.0
 10
-25.497445
 20
24.915380
 30
0.0
 10
-25.685483
 20
25.359700
 30
0.0
 10
-25.830428
 20
25.816580
 30
0.0
 10
-29.941583
 20
41.334900
 30
0.0
 10
-30.038462
 20
41.791540
 30
0.0
 10
-30.085446
 20
42.235028
 30
0.0
 10
-30.084326
 20
42.663140
 30
0.0
 10
-30.036822
 20
43.073580
 30
0.0
 10
-29.944720
 20
43.464052
 30
0.0
 10
-29.809778
 20
43.832284
 30
0.0
 10
-29.633766
 20
44.176004
 30
0.0
 10
-29.418438
 20
44.492924
 30
0.0
 10
-29.165561
 20
44.780772
 30
0.0
 10
-28.876898
 20
45.037260
 30
0.0
 10
-28.554210
 20
45.260108
 30
0.0
 10
-28.199261
 20
45.447052
 30
0.0
 10
-27.813813
 20
45.595804
 30
0.0
 10
-27.399631
 20
45.704076
 30
0.0
 10
-26.958476
 20
45.769596
 30
0.0
 10
-26.492106
 20
45.790076
 30
0.0
 10
12.112652
 20
45.791676
 30
0.0
 10
19.308081
 20
45.793276
 30
0.0
 10
20.215990
 20
45.794076
 30
0.0
 10
19.459050
 20
45.794876
 30
0.0
 10
-34.979085
 20
45.798876
 30
0.0
 10
-34.979085
 20
45.798876
 30
0.0
  0
LWPOLYLINE
  5
107
100
AcDbEntity
  8
Capa_1
 62
7
100
AcDbPolyline
 90
14
 70
0
 10
35.627126
 20
33.847764
 30
0.0
 10
35.600814
 20
32.848484
 30
0.0
 10
35.466293
 20
31.888324
 30
0.0
 10
35.277650
 20
31.058724
 30
0.0
 10
35.088973
 20
30.451204
 30
0.0
 10
35.401502
 20
30.699764
 30
0.0
 10
35.664845
 20
31.096564
 30
0.0
 10
35.858604
 20
31.611844
 30
0.0
 10
35.962373
 20
32.215684
 30
0.0
 10
35.968533
 20
32.699524
 30
0.0
 10
35.910053
 20
33.143204
 30
0.0
 10
35.793924
 20
33.531124
 30
0.0
 10
35.627140
 20
33.847764
 30
0.0
 10
35.627140
 20
33.847764
 30
0.0
  0
LWPOLYLINE
  5
108
100
AcDbEntity
  8
Capa_1
 62
7
100
AcDbPolyline
 90
22
 70
0
 10
34.171459
 20
38.726484
 30
0.0
 10
30.766081
 20
25.996004
 30
0.0
 10
31.184472
 20
26.122164
 30
0.0
 10
31.593580
 20
26.300964
 30
0.0
 10
31.991537
 20
26.530084
 30
0.0
 10
32.376477
 20
26.807044
 30
0.0
 10
32.746530
 20
27.129604
 30
0.0
 10
33.099834
 20
27.495124
 30
0.0
 10
33.748713
 20
28.345924
 30
0.0
 10
34.308174
 20
29.340244
 30
0.0
 10
34.763286
 20
30.458884
 30
0.0
 10
35.099109
 20
31.682484
 30
0.0
 10
35.300704
 20
32.992004
 30
0.0
 10
35.350600
 20
33.825044
 30
0.0
 10
35.340328
 20
34.635124
 30
0.0
 10
35.272696
 20
35.417124
 30
0.0
 10
35.150481
 20
36.166004
 30
0.0
 10
34.976462
 20
36.876484
 30
0.0
 10
34.753427
 20
37.543524
 30
0.0
 10
34.484162
 20
38.161844
 30
0.0
 10
34.171449
 20
38.726484
 30
0.0
 10
34.171449
 20
38.726484
 30
0.0
  0
LWPOLYLINE
  5
109
100
AcDbEntity
  8
Capa_1
 62
7
100
AcDbPolyline
 90
95
 70
0
 10
-25.512865
 20
45.788980
 30
0.0
 10
-25.979234
 20
45.768500
 30
0.0
 10
-26.420390
 20
45.702980
 30
0.0
 10
-26.834572
 20
45.594700
 30
0.0
 10
-27.220019
 20
45.445956
 30
0.0
 10
-27.574969
 20
45.259012
 30
0.0
 10
-27.897656
 20
45.036156
 30
0.0
 10
-28.186319
 20
44.779668
 30
0.0
 10
-28.439197
 20
44.491828
 30
0.0
 10
-28.654524
 20
44.174908
 30
0.0
 10
-28.830537
 20
43.831188
 30
0.0
 10
-28.965478
 20
43.462956
 30
0.0
 10
-29.057580
 20
43.072476
 30
0.0
 10
-29.105084
 20
42.662044
 30
0.0
 10
-29.106204
 20
42.233932
 30
0.0
 10
-29.059220
 20
41.790428
 30
0.0
 10
-28.962342
 20
41.333788
 30
0.0
 10
-24.851186
 20
25.815468
 30
0.0
 10
-24.706242
 20
25.358588
 30
0.0
 10
-24.518203
 20
24.914268
 30
0.0
 10
-24.024766
 20
24.072668
 30
0.0
 10
-23.394691
 20
23.309148
 30
0.0
 10
-22.651806
 20
22.642108
 30
0.0
 10
-21.819926
 20
22.089948
 30
0.0
 10
-20.922870
 20
21.671148
 30
0.0
 10
-19.984462
 20
21.404108
 30
0.0
 10
-19.507193
 20
21.332908
 30
0.0
 10
-19.028518
 20
21.306508
 30
0.0
 10
-5.204092
 20
21.306508
 30
0.0
 10
-4.860392
 20
20.890748
 30
0.0
 10
-4.404578
 20
20.499948
 30
0.0
 10
-3.844922
 20
20.137628
 30
0.0
 10
-3.189689
 20
19.807388
 30
0.0
 10
-2.447151
 20
19.512988
 30
0.0
 10
-1.625583
 20
19.257868
 30
0.0
 10
-0.733249
 20
19.045868
 30
0.0
 10
0.221576
 20
18.880428
 30
0.0
 10
0.221576
 20
17.380668
 30
0.0
 10
0.249383
 20
16.730028
 30
0.0
 10
0.342591
 20
16.117628
 30
0.0
 10
0.515885
 20
15.559708
 30
0.0
 10
0.783948
 20
15.072828
 30
0.0
 10
1.161472
 20
14.673068
 30
0.0
 10
1.663133
 20
14.376908
 30
0.0
 10
2.303623
 20
14.200588
 30
0.0
 10
3.097624
 20
14.160588
 30
0.0
 10
4.020804
 20
14.238988
 30
0.0
 10
4.721926
 20
14.433468
 30
0.0
 10
4.998749
 20
14.570428
 30
0.0
 10
5.231498
 20
14.732028
 30
0.0
 10
5.423983
 20
14.916668
 30
0.0
 10
5.580020
 20
15.122988
 30
0.0
 10
5.797995
 20
15.594988
 30
0.0
 10
5.915928
 20
16.136188
 30
0.0
 10
5.964316
 20
16.735228
 30
0.0
 10
5.973660
 20
17.380348
 30
0.0
 10
6.008949
 20
18.941868
 30
0.0
 10
6.893780
 20
19.116108
 30
0.0
 10
7.719416
 20
19.331148
 30
0.0
 10
8.478845
 20
19.583948
 30
0.0
 10
9.165058
 20
19.871388
 30
0.0
 10
9.771050
 20
20.190428
 30
0.0
 10
10.289811
 20
20.537948
 30
0.0
 10
10.714337
 20
20.910908
 30
0.0
 10
11.037617
 20
21.306188
 30
0.0
 10
24.138620
 20
21.306188
 30
0.0
 10
24.617391
 20
21.332588
 30
0.0
 10
25.094941
 20
21.403788
 30
0.0
 10
26.034351
 20
21.670828
 30
0.0
 10
26.932818
 20
22.089628
 30
0.0
 10
27.766319
 20
22.641788
 30
0.0
 10
28.510824
 20
23.308828
 30
0.0
 10
29.142309
 20
24.072348
 30
0.0
 10
29.636746
 20
24.913948
 30
0.0
 10
29.825065
 20
25.358268
 30
0.0
 10
29.970110
 20
25.815148
 30
0.0
 10
34.072445
 20
41.333468
 30
0.0
 10
34.169261
 20
41.790108
 30
0.0
 10
34.216205
 20
42.233612
 30
0.0
 10
34.215085
 20
42.661724
 30
0.0
 10
34.167565
 20
43.072156
 30
0.0
 10
34.075455
 20
43.462636
 30
0.0
 10
33.940516
 20
43.830868
 30
0.0
 10
33.764512
 20
44.174588
 30
0.0
 10
33.549198
 20
44.491508
 30
0.0
 10
33.296341
 20
44.779348
 30
0.0
 10
33.007698
 20
45.035836
 30
0.0
 10
32.685033
 20
45.258692
 30
0.0
 10
32.330106
 20
45.445636
 30
0.0
 10
31.944678
 20
45.594380
 30
0.0
 10
31.530510
 20
45.702660
 30
0.0
 10
31.089365
 20
45.768180
 30
0.0
 10
30.623001
 20
45.788660
 30
0.0
 10
-25.512813
 20
45.788660
 30
0.0
 10
-25.512813
 20
45.788660
 30
0.0
  0
LWPOLYLINE
  5
10a
100
AcDbEntity
  8
Capa_1
 62
7
100
AcDbPolyline
 90
34
 70
0
 10
-17.740433
 20
36.745844
 30
0.0
 10
-17.232013
 20
36.694644
 30
0.0
 10
-16.758433
 20
36.547604
 30
0.0
 10
-16.329842
 20
36.314884
 30
0.0
 10
-15.956404
 20
36.006724
 30
0.0
 10
-15.648270
 20
35.633204
 30
0.0
 10
-15.415600
 20
35.204644
 30
0.0
 10
-15.268550
 20
34.731124
 30
0.0
 10
-15.217278
 20
34.222804
 30
0.0
 10
-15.268550
 20
33.714484
 30
0.0
 10
-15.415600
 20
33.240964
 30
0.0
 10
-15.648270
 20
32.812404
 30
0.0
 10
-15.956404
 20
32.438884
 30
0.0
 10
-16.329842
 20
32.130724
 30
0.0
 10
-16.758433
 20
31.898004
 30
0.0
 10
-17.232013
 20
31.750964
 30
0.0
 10
-17.740433
 20
31.699764
 30
0.0
 10
-18.248271
 20
31.750964
 30
0.0
 10
-18.720761
 20
31.898004
 30
0.0
 10
-19.147923
 20
32.130724
 30
0.0
 10
-19.519789
 20
32.438884
 30
0.0
 10
-19.826379
 20
32.812404
 30
0.0
 10
-20.057725
 20
33.240964
 30
0.0
 10
-20.203843
 20
33.714484
 30
0.0
 10
-20.254763
 20
34.222804
 30
0.0
 10
-20.203843
 20
34.731124
 30
0.0
 10
-20.057725
 20
35.204644
 30
0.0
 10
-19.826379
 20
35.633204
 30
0.0
 10
-19.519789
 20
36.006724
 30
0.0
 10
-19.147923
 20
36.314884
 30
0.0
 10
-18.720761
 20
36.547604
 30
0.0
 10
-18.248271
 20
36.694644
 30
0.0
 10
-17.740433
 20
36.745844
 30
0.0
 10
-17.740433
 20
36.745844
 30
0.0
  0
LWPOLYLINE
  5
10b
100
AcDbEntity
  8
Capa_1
 62
7
100
AcDbPolyline
 90
34
 70
0
 10
23.027066
 20
36.578244
 30
0.0
 10
23.535486
 20
36.527044
 30
0.0
 10
24.009066
 20
36.379924
 30
0.0
 10
24.437656
 20
36.147284
 30
0.0
 10
24.811094
 20
35.839044
 30
0.0
 10
25.119229
 20
35.465604
 30
0.0
 10
25.351898
 20
35.037044
 30
0.0
 10
25.498949
 20
34.563524
 30
0.0
 10
25.550221
 20
34.055204
 30
0.0
 10
25.498949
 20
33.547124
 30
0.0
 10
25.351898
 20
33.074564
 30
0.0
 10
25.119229
 20
32.647364
 30
0.0
 10
24.811094
 20
32.275524
 30
0.0
 10
24.437656
 20
31.969044
 30
0.0
 10
24.009066
 20
31.737764
 30
0.0
 10
23.535486
 20
31.591764
 30
0.0
 10
23.027066
 20
31.540564
 30
0.0
 10
22.519024
 20
31.591764
 30
0.0
 10
22.046441
 20
31.737764
 30
0.0
 10
21.619265
 20
31.969044
 30
0.0
 10
21.247444
 20
32.275524
 30
0.0
 10
20.940933
 20
32.647364
 30
0.0
 10
20.709675
 20
33.074564
 30
0.0
 10
20.563624
 20
33.547124
 30
0.0
 10
20.512736
 20
34.055204
 30
0.0
 10
20.563624
 20
34.563524
 30
0.0
 10
20.709675
 20
35.037044
 30
0.0
 10
20.940933
 20
35.465604
 30
0.0
 10
21.247444
 20
35.839044
 30
0.0
 10
21.619265
 20
36.147284
 30
0.0
 10
22.046441
 20
36.379924
 30
0.0
 10
22.519024
 20
36.527044
 30
0.0
 10
23.027066
 20
36.578244
 30
0.0
 10
23.027066
 20
36.578244
 30
0.0
  0
LWPOLYLINE
  5
10c
100
AcDbEntity
  8
Capa_1
 62
7
100
AcDbPolyline
 90
57
 70
0
 10
-42.539757
 20
40.036884
 30
0.0
 10
-42.803489
 20
39.984084
 30
0.0
 10
-43.048035
 20
39.885364
 30
0.0
 10
-43.268470
 20
39.745284
 30
0.0
 10
-43.459870
 20
39.568884
 30
0.0
 10
-43.617313
 20
39.361044
 30
0.0
 10
-43.735870
 20
39.126724
 30
0.0
 10
-43.810614
 20
38.870884
 30
0.0
 10
-43.836614
 20
38.598484
 30
0.0
 10
-43.807358
 20
38.308804
 30
0.0
 10
-43.723478
 20
38.038964
 30
0.0
 10
-43.590780
 20
37.794724
 30
0.0
 10
-43.415084
 20
37.581844
 30
0.0
 10
-43.202202
 20
37.406164
 30
0.0
 10
-42.957949
 20
37.273524
 30
0.0
 10
-42.688141
 20
37.189684
 30
0.0
 10
-42.398589
 20
37.160084
 30
0.0
 10
-42.062576
 20
37.203284
 30
0.0
 10
-41.754566
 20
37.318964
 30
0.0
 10
-37.034676
 20
32.219684
 30
0.0
 10
-36.849410
 20
32.158084
 30
0.0
 10
-36.690322
 20
31.676244
 30
0.0
 10
-36.463360
 20
31.299684
 30
0.0
 10
-36.182402
 20
31.054644
 30
0.0
 10
-36.026010
 20
30.989844
 30
0.0
 10
-35.861320
 20
30.967444
 30
0.0
 10
-35.645062
 20
31.006644
 30
0.0
 10
-35.443336
 20
31.119364
 30
0.0
 10
-35.260548
 20
31.297764
 30
0.0
 10
-35.101110
 20
31.533844
 30
0.0
 10
-34.969429
 20
31.819924
 30
0.0
 10
-34.869914
 20
32.148084
 30
0.0
 10
-34.806970
 20
32.510484
 30
0.0
 10
-34.785010
 20
32.899364
 30
0.0
 10
-34.806970
 20
33.287844
 30
0.0
 10
-34.869914
 20
33.649204
 30
0.0
 10
-34.969429
 20
33.975924
 30
0.0
 10
-35.101110
 20
34.260404
 30
0.0
 10
-35.260548
 20
34.494964
 30
0.0
 10
-35.443336
 20
34.671924
 30
0.0
 10
-35.645062
 20
34.783684
 30
0.0
 10
-35.861320
 20
34.822884
 30
0.0
 10
-36.024860
 20
34.801284
 30
0.0
 10
-36.180482
 20
34.738084
 30
0.0
 10
-36.461231
 20
34.496964
 30
0.0
 10
-41.022322
 20
38.166964
 30
0.0
 10
-40.960570
 20
38.599284
 30
0.0
 10
-40.989810
 20
38.888964
 30
0.0
 10
-41.073656
 20
39.158804
 30
0.0
 10
-41.206309
 20
39.403044
 30
0.0
 10
-41.381966
 20
39.615924
 30
0.0
 10
-41.594822
 20
39.791604
 30
0.0
 10
-41.839083
 20
39.924244
 30
0.0
 10
-42.108939
 20
40.008084
 30
0.0
 10
-42.398594
 20
40.037684
 30
0.0
 10
-42.539749
 20
40.037684
 30
0.0
 10
-42.539749
 20
40.037684
 30
0.0
  0
LWPOLYLINE
  5
10d
100
AcDbEntity
  8
Capa_1
 62
7
100
AcDbPolyline
 90
18
 70
0
 10
-42.451526
 20
39.137844
 30
0.0
 10
-42.204891
 20
39.087444
 30
0.0
 10
-42.002918
 20
38.950804
 30
0.0
 10
-41.866448
 20
38.748804
 30
0.0
 10
-41.816328
 20
38.502484
 30
0.0
 10
-41.866448
 20
38.257204
 30
0.0
 10
-42.002918
 20
38.058324
 30
0.0
 10
-42.204891
 20
37.924884
 30
0.0
 10
-42.451526
 20
37.876084
 30
0.0
 10
-42.698015
 20
37.924884
 30
0.0
 10
-42.900003
 20
38.058324
 30
0.0
 10
-43.036558
 20
38.257204
 30
0.0
 10
-43.086726
 20
38.502484
 30
0.0
 10
-43.036558
 20
38.748804
 30
0.0
 10
-42.900003
 20
38.950804
 30
0.0
 10
-42.698015
 20
39.087444
 30
0.0
 10
-42.451526
 20
39.137844
 30
0.0
 10
-42.451526
 20
39.137844
 30
0.0
  0
LWPOLYLINE
  5
10e
100
AcDbEntity
  8
Capa_1
 62
7
100
AcDbPolyline
 90
80
 70
0
 10
-26.088618
 20
-33.273356
 30
0.0
 10
-35.677317
 20
-33.273356
 30
0.0
 10
-35.618325
 20
-32.182796
 30
0.0
 10
-35.466557
 20
-31.119436
 30
0.0
 10
-35.226054
 20
-30.087356
 30
0.0
 10
-34.900859
 20
-29.090636
 30
0.0
 10
-34.495020
 20
-28.133276
 30
0.0
 10
-34.012581
 20
-27.219436
 30
0.0
 10
-33.457588
 20
-26.353036
 30
0.0
 10
-32.834087
 20
-25.538236
 30
0.0
 10
-32.146123
 20
-24.779036
 30
0.0
 10
-31.397742
 20
-24.079516
 30
0.0
 10
-30.592988
 20
-23.443676
 30
0.0
 10
-29.735908
 20
-22.875676
 30
0.0
 10
-28.830548
 20
-22.379436
 30
0.0
 10
-27.880952
 20
-21.959116
 30
0.0
 10
-26.891166
 20
-21.618716
 30
0.0
 10
-25.865237
 20
-21.362316
 30
0.0
 10
-27.083762
 20
-21.176476
 30
0.0
 10
-28.338282
 20
-21.113276
 30
0.0
 10
-29.594648
 20
-21.176476
 30
0.0
 10
-30.814724
 20
-21.362716
 30
0.0
 10
-31.992328
 20
-21.665436
 30
0.0
 10
-33.121290
 20
-22.078716
 30
0.0
 10
-34.195431
 20
-22.596076
 30
0.0
 10
-35.208575
 20
-23.211596
 30
0.0
 10
-36.154541
 20
-23.918956
 30
0.0
 10
-37.027159
 20
-24.711996
 30
0.0
 10
-37.820247
 20
-25.584556
 30
0.0
 10
-38.527629
 20
-26.530476
 30
0.0
 10
-39.143132
 20
-27.543596
 30
0.0
 10
-39.660578
 20
-28.617676
 30
0.0
 10
-40.073785
 20
-29.746556
 30
0.0
 10
-40.376581
 20
-30.924076
 30
0.0
 10
-40.562787
 20
-32.144076
 30
0.0
 10
-40.626227
 20
-33.400236
 30
0.0
 10
-40.562787
 20
-34.656716
 30
0.0
 10
-40.376581
 20
-35.876956
 30
0.0
 10
-40.073785
 20
-37.054636
 30
0.0
 10
-39.660578
 20
-38.183676
 30
0.0
 10
-39.143132
 20
-39.257916
 30
0.0
 10
-38.527629
 20
-40.271116
 30
0.0
 10
-37.820247
 20
-41.217116
 30
0.0
 10
-37.027159
 20
-42.089756
 30
0.0
 10
-36.154541
 20
-42.882876
 30
0.0
 10
-35.208575
 20
-43.590316
 30
0.0
 10
-34.195431
 20
-44.205836
 30
0.0
 10
-33.121290
 20
-44.723276
 30
0.0
 10
-31.992328
 20
-45.136476
 30
0.0
 10
-30.814724
 20
-45.439276
 30
0.0
 10
-29.594648
 20
-45.625436
 30
0.0
 10
-28.338282
 20
-45.688636
 30
0.0
 10
-27.083762
 20
-45.625436
 30
0.0
 10
-25.865237
 20
-45.440156
 30
0.0
 10
-26.792869
 20
-45.212396
 30
0.0
 10
-27.691346
 20
-44.915756
 30
0.0
 10
-28.557691
 20
-44.553516
 30
0.0
 10
-29.388939
 20
-44.128396
 30
0.0
 10
-30.182110
 20
-43.643436
 30
0.0
 10
-30.934240
 20
-43.101676
 30
0.0
 10
-31.642350
 20
-42.506076
 30
0.0
 10
-32.303478
 20
-41.859516
 30
0.0
 10
-32.914639
 20
-41.165196
 30
0.0
 10
-33.472870
 20
-40.425916
 30
0.0
 10
-33.975200
 20
-39.644716
 30
0.0
 10
-34.418654
 20
-38.824556
 30
0.0
 10
-34.800258
 20
-37.968396
 30
0.0
 10
-35.117047
 20
-37.079356
 30
0.0
 10
-35.366040
 20
-36.160236
 30
0.0
 10
-35.544274
 20
-35.214076
 30
0.0
 10
-26.088615
 20
-35.214076
 30
0.0
 10
-25.804910
 20
-35.156476
 30
0.0
 10
-25.572650
 20
-34.999436
 30
0.0
 10
-25.415752
 20
-34.767196
 30
0.0
 10
-25.358136
 20
-34.483596
 30
0.0
 10
-25.358136
 20
-34.003676
 30
0.0
 10
-25.415752
 20
-33.720156
 30
0.0
 10
-25.572650
 20
-33.487836
 30
0.0
 10
-25.804910
 20
-33.330876
 30
0.0
 10
-26.088615
 20
-33.273276
 30
0.0
  0
LWPOLYLINE
  5
10f
100
AcDbEntity
  8
Capa_1
 62
7
100
AcDbPolyline
 90
22
 70
0
 10
-12.851397
 20
-33.296476
 30
0.0
 10
-21.779841
 20
-33.296476
 30
0.0
 10
-21.779841
 20
-31.614556
 30
0.0
 10
-21.757001
 20
-31.255996
 30
0.0
 10
-21.683441
 20
-30.945756
 30
0.0
 10
-21.551574
 20
-30.683676
 30
0.0
 10
-21.353811
 20
-30.469676
 30
0.0
 10
-21.082570
 20
-30.303516
 30
0.0
 10
-20.730268
 20
-30.185036
 30
0.0
 10
-20.289318
 20
-30.113836
 30
0.0
 10
-19.752136
 20
-30.089836
 30
0.0
 10
-14.878739
 20
-30.089836
 30
0.0
 10
-14.341572
 20
-30.113836
 30
0.0
 10
-13.900666
 20
-30.185036
 30
0.0
 10
-13.548418
 20
-30.303516
 30
0.0
 10
-13.277242
 20
-30.469676
 30
0.0
 10
-13.079542
 20
-30.683676
 30
0.0
 10
-12.947731
 20
-30.945756
 30
0.0
 10
-12.874211
 20
-31.255996
 30
0.0
 10
-12.851371
 20
-31.614556
 30
0.0
 10
-12.851371
 20
-33.296476
 30
0.0
 10
-12.851371
 20
-33.296476
 30
0.0
  0
LWPOLYLINE
  5
110
100
AcDbEntity
  8
Capa_1
 62
7
100
AcDbPolyline
 90
25
 70
0
 10
-14.864250
 20
-28.005916
 30
0.0
 10
-19.766583
 20
-28.005916
 30
0.0
 10
-20.731114
 20
-28.065916
 30
0.0
 10
-21.565405
 20
-28.244076
 30
0.0
 10
-22.269952
 20
-28.537196
 30
0.0
 10
-22.845277
 20
-28.941996
 30
0.0
 10
-23.291870
 20
-29.455276
 30
0.0
 10
-23.610239
 20
-30.073996
 30
0.0
 10
-23.800892
 20
-30.794716
 30
0.0
 10
-23.864332
 20
-31.614396
 30
0.0
 10
-23.864332
 20
-38.630556
 30
0.0
 10
-21.779816
 20
-38.630556
 30
0.0
 10
-21.779816
 20
-35.237196
 30
0.0
 10
-12.851373
 20
-35.237196
 30
0.0
 10
-12.851373
 20
-38.630556
 30
0.0
 10
-10.766858
 20
-38.630556
 30
0.0
 10
-10.766858
 20
-31.614396
 30
0.0
 10
-10.830298
 20
-30.794716
 30
0.0
 10
-11.020945
 20
-30.073996
 30
0.0
 10
-11.339299
 20
-29.455276
 30
0.0
 10
-11.785870
 20
-28.941996
 30
0.0
 10
-12.361146
 20
-28.537196
 30
0.0
 10
-13.065638
 20
-28.244076
 30
0.0
 10
-13.899838
 20
-28.065916
 30
0.0
 10
-14.864250
 20
-28.005916
 30
0.0
  0
LWPOLYLINE
  5
111
100
AcDbEntity
  8
Capa_1
 62
7
100
AcDbPolyline
 90
29
 70
0
 10
8.658622
 20
-27.861996
 30
0.0
 10
8.159237
 20
-27.953676
 30
0.0
 10
7.926900
 20
-28.074396
 30
0.0
 10
7.724173
 20
-28.250476
 30
0.0
 10
0.377730
 20
-36.272716
 30
0.0
 10
-6.969065
 20
-28.250476
 30
0.0
 10
-7.177702
 20
-28.068316
 30
0.0
 10
-7.409296
 20
-27.948236
 30
0.0
 10
-7.903515
 20
-27.861996
 30
0.0
 10
-8.276968
 20
-27.924396
 30
0.0
 10
-8.593809
 20
-28.112076
 30
0.0
 10
-8.813588
 20
-28.426556
 30
0.0
 10
-8.895839
 20
-28.868956
 30
0.0
 10
-8.895839
 20
-38.630876
 30
0.0
 10
-6.810971
 20
-38.630876
 30
0.0
 10
-6.810971
 20
-31.428076
 30
0.0
 10
-0.370042
 20
-38.472476
 30
0.0
 10
-0.033868
 20
-38.711676
 30
0.0
 10
0.377730
 20
-38.789276
 30
0.0
 10
0.789021
 20
-38.711676
 30
0.0
 10
1.125149
 20
-38.472476
 30
0.0
 10
7.566078
 20
-31.428076
 30
0.0
 10
7.566078
 20
-38.630876
 30
0.0
 10
9.650946
 20
-38.630876
 30
0.0
 10
9.650946
 20
-28.868956
 30
0.0
 10
9.568695
 20
-28.426556
 30
0.0
 10
9.348916
 20
-28.112076
 30
0.0
 10
9.032075
 20
-27.924396
 30
0.0
 10
8.658622
 20
-27.861996
 30
0.0
  0
LWPOLYLINE
  5
112
100
AcDbEntity
  8
Capa_1
 62
7
100
AcDbPolyline
 90
10
 70
0
 10
24.824114
 20
-30.090476
 30
0.0
 10
30.330593
 20
-30.090476
 30
0.0
 10
30.330593
 20
-38.630716
 30
0.0
 10
32.415462
 20
-38.630716
 30
0.0
 10
32.415462
 20
-30.090476
 30
0.0
 10
37.921588
 20
-30.090476
 30
0.0
 10
37.921588
 20
-28.005916
 30
0.0
 10
24.824114
 20
-28.005916
 30
0.0
 10
24.824114
 20
-30.090476
 30
0.0
 10
24.824114
 20
-30.090476
 30
0.0
  0
LWPOLYLINE
  5
113
100
AcDbEntity
  8
Capa_1
 62
7
100
AcDbPolyline
 90
14
 70
0
 10
-58.145730
 20
-35.654476
 30
0.0
 10
-58.225506
 20
-36.042556
 30
0.0
 10
-58.471094
 20
-36.321276
 30
0.0
 10
-58.891893
 20
-36.489516
 30
0.0
 10
-59.497294
 20
-36.545516
 30
0.0
 10
-67.002185
 20
-36.545516
 30
0.0
 10
-67.002185
 20
-30.090156
 30
0.0
 10
-59.497294
 20
-30.090156
 30
0.0
 10
-58.891893
 20
-30.146956
 30
0.0
 10
-58.471094
 20
-30.315276
 30
0.0
 10
-58.225506
 20
-30.594156
 30
0.0
 10
-58.145730
 20
-30.982316
 30
0.0
 10
-58.145730
 20
-35.654556
 30
0.0
 10
-58.145730
 20
-35.654556
 30
0.0
  0
LWPOLYLINE
  5
114
100
AcDbEntity
  8
Capa_1
 62
7
100
AcDbPolyline
 90
21
 70
0
 10
-59.511762
 20
-28.005996
 30
0.0
 10
-69.086699
 20
-28.005996
 30
0.0
 10
-69.086699
 20
-38.630796
 30
0.0
 10
-59.511762
 20
-38.630796
 30
0.0
 10
-58.617962
 20
-38.583596
 30
0.0
 10
-57.871778
 20
-38.443756
 30
0.0
 10
-57.264447
 20
-38.212716
 30
0.0
 10
-56.787194
 20
-37.891836
 30
0.0
 10
-56.431265
 20
-37.482716
 30
0.0
 10
-56.187882
 20
-36.986716
 30
0.0
 10
-56.048278
 20
-36.405596
 30
0.0
 10
-56.003694
 20
-35.740716
 30
0.0
 10
-56.003694
 20
-30.895516
 30
0.0
 10
-56.048278
 20
-30.230636
 30
0.0
 10
-56.187882
 20
-29.649436
 30
0.0
 10
-56.431265
 20
-29.153516
 30
0.0
 10
-56.787194
 20
-28.744316
 30
0.0
 10
-57.264447
 20
-28.423436
 30
0.0
 10
-57.871778
 20
-28.192396
 30
0.0
 10
-58.617962
 20
-28.052636
 30
0.0
 10
-59.511762
 20
-28.005436
 30
0.0
  0
LWPOLYLINE
  5
115
100
AcDbEntity
  8
Capa_1
 62
7
100
AcDbPolyline
 90
61
 70
0
 10
20.681550
 20
-31.585516
 30
0.0
 10
14.484819
 20
-31.585516
 30
0.0
 10
14.081637
 20
-31.559916
 30
0.0
 10
13.825312
 20
-31.477676
 30
0.0
 10
13.690272
 20
-31.330636
 30
0.0
 10
13.650944
 20
-31.110876
 30
0.0
 10
13.650944
 20
-30.478556
 30
0.0
 10
13.690048
 20
-30.302636
 30
0.0
 10
13.823508
 20
-30.181836
 30
0.0
 10
14.075538
 20
-30.112236
 30
0.0
 10
14.470354
 20
-30.089836
 30
0.0
 10
23.758038
 20
-30.089836
 30
0.0
 10
23.758038
 20
-28.005356
 30
0.0
 10
14.542343
 20
-28.005356
 30
0.0
 10
13.829408
 20
-28.037356
 30
0.0
 10
13.210969
 20
-28.132556
 30
0.0
 10
12.687197
 20
-28.291436
 30
0.0
 10
12.258267
 20
-28.514156
 30
0.0
 10
11.924353
 20
-28.800876
 30
0.0
 10
11.685627
 20
-29.151836
 30
0.0
 10
11.542267
 20
-29.567196
 30
0.0
 10
11.494443
 20
-30.047116
 30
0.0
 10
11.494443
 20
-31.384236
 30
0.0
 10
11.542323
 20
-31.919996
 30
0.0
 10
11.686077
 20
-32.384396
 30
0.0
 10
11.925860
 20
-32.777276
 30
0.0
 10
12.261838
 20
-33.098796
 30
0.0
 10
12.694178
 20
-33.348796
 30
0.0
 10
13.223026
 20
-33.527356
 30
0.0
 10
13.848558
 20
-33.634476
 30
0.0
 10
14.570927
 20
-33.670476
 30
0.0
 10
20.696021
 20
-33.670476
 30
0.0
 10
21.301217
 20
-33.726476
 30
0.0
 10
21.721911
 20
-33.894716
 30
0.0
 10
21.967460
 20
-34.173436
 30
0.0
 10
22.047236
 20
-34.561516
 30
0.0
 10
22.047236
 20
-35.654076
 30
0.0
 10
21.967460
 20
-36.042156
 30
0.0
 10
21.721911
 20
-36.320876
 30
0.0
 10
21.301217
 20
-36.489116
 30
0.0
 10
20.696021
 20
-36.545916
 30
0.0
 10
11.494441
 20
-36.545916
 30
0.0
 10
11.494441
 20
-38.630716
 30
0.0
 10
20.681552
 20
-38.630716
 30
0.0
 10
21.575237
 20
-38.583516
 30
0.0
 10
22.321331
 20
-38.443756
 30
0.0
 10
22.928605
 20
-38.212636
 30
0.0
 10
23.405810
 20
-37.891756
 30
0.0
 10
23.761719
 20
-37.482636
 30
0.0
 10
24.005089
 20
-36.986716
 30
0.0
 10
24.144683
 20
-36.405516
 30
0.0
 10
24.189267
 20
-35.740636
 30
0.0
 10
24.189267
 20
-34.475116
 30
0.0
 10
24.144683
 20
-33.810236
 30
0.0
 10
24.005089
 20
-33.229116
 30
0.0
 10
23.761719
 20
-32.733276
 30
0.0
 10
23.405810
 20
-32.324156
 30
0.0
 10
22.928605
 20
-32.003356
 30
0.0
 10
22.321331
 20
-31.772316
 30
0.0
 10
21.575237
 20
-31.632636
 30
0.0
 10
20.681552
 20
-31.585436
 30
0.0
  0
LWPOLYLINE
  5
116
100
AcDbEntity
  8
Capa_1
 62
7
100
AcDbPolyline
 90
14
 70
0
 10
55.825765
 20
-32.965596
 30
0.0
 10
55.825765
 20
-30.089916
 30
0.0
 10
63.345123
 20
-30.089916
 30
0.0
 10
63.950472
 20
-30.146716
 30
0.0
 10
64.371146
 20
-30.315036
 30
0.0
 10
64.616613
 20
-30.593916
 30
0.0
 10
64.696333
 20
-30.982076
 30
0.0
 10
64.696333
 20
-32.074636
 30
0.0
 10
64.616613
 20
-32.462476
 30
0.0
 10
64.371146
 20
-32.741276
 30
0.0
 10
63.950472
 20
-32.909596
 30
0.0
 10
63.345123
 20
-32.966396
 30
0.0
 10
55.825765
 20
-32.966396
 30
0.0
 10
55.825765
 20
-32.966396
 30
0.0
  0
LWPOLYLINE
  5
117
100
AcDbEntity
  8
Capa_1
 62
7
100
AcDbPolyline
 90
28
 70
0
 10
61.720422
 20
-34.835276
 30
0.0
 10
63.330654
 20
-34.835276
 30
0.0
 10
64.224356
 20
-34.788076
 30
0.0
 10
64.970490
 20
-34.648316
 30
0.0
 10
65.577815
 20
-34.417196
 30
0.0
 10
66.055087
 20
-34.096316
 30
0.0
 10
66.411059
 20
-33.687196
 30
0.0
 10
66.654488
 20
-33.191276
 30
0.0
 10
66.794124
 20
-32.610076
 30
0.0
 10
66.838724
 20
-31.945196
 30
0.0
 10
66.838724
 20
-30.895676
 30
0.0
 10
66.794124
 20
-30.230796
 30
0.0
 10
66.654488
 20
-29.649596
 30
0.0
 10
66.411059
 20
-29.153676
 30
0.0
 10
66.055087
 20
-28.744556
 30
0.0
 10
65.577815
 20
-28.423676
 30
0.0
 10
64.970490
 20
-28.192556
 30
0.0
 10
64.224356
 20
-28.052796
 30
0.0
 10
63.330654
 20
-28.005596
 30
0.0
 10
53.740897
 20
-28.005596
 30
0.0
 10
53.740897
 20
-38.630316
 30
0.0
 10
55.825765
 20
-38.630316
 30
0.0
 10
55.825765
 20
-34.834636
 30
0.0
 10
58.384916
 20
-34.834636
 30
0.0
 10
63.416759
 20
-38.630316
 30
0.0
 10
67.154913
 20
-38.630316
 30
0.0
 10
61.720422
 20
-34.834636
 30
0.0
 10
61.720422
 20
-34.834636
 30
0.0
  0
LWPOLYLINE
  5
118
100
AcDbEntity
  8
Capa_1
 62
7
100
AcDbPolyline
 90
14
 70
0
 10
41.144525
 20
-33.425916
 30
0.0
 10
50.130137
 20
-33.425916
 30
0.0
 10
50.130137
 20
-31.485036
 30
0.0
 10
41.144525
 20
-31.485036
 30
0.0
 10
41.144525
 20
-30.090076
 30
0.0
 10
52.128547
 20
-30.090076
 30
0.0
 10
52.128547
 20
-28.005596
 30
0.0
 10
39.059657
 20
-28.005596
 30
0.0
 10
39.059657
 20
-38.630316
 30
0.0
 10
52.157131
 20
-38.630316
 30
0.0
 10
52.157131
 20
-36.545516
 30
0.0
 10
41.144525
 20
-36.545516
 30
0.0
 10
41.144525
 20
-33.425916
 30
0.0
 10
41.144525
 20
-33.425916
 30
0.0
  0
LWPOLYLINE
  5
119
100
AcDbEntity
  8
Capa_1
 62
7
100
AcDbPolyline
 90
14
 70
0
 10
-52.076390
 20
-32.965756
 30
0.0
 10
-52.076390
 20
-30.090076
 30
0.0
 10
-44.557031
 20
-30.090076
 30
0.0
 10
-43.951682
 20
-30.146876
 30
0.0
 10
-43.531008
 20
-30.315196
 30
0.0
 10
-43.285542
 20
-30.594076
 30
0.0
 10
-43.205822
 20
-30.982236
 30
0.0
 10
-43.205822
 20
-32.074796
 30
0.0
 10
-43.285542
 20
-32.462636
 30
0.0
 10
-43.531008
 20
-32.741436
 30
0.0
 10
-43.951682
 20
-32.909756
 30
0.0
 10
-44.557031
 20
-32.966556
 30
0.0
 10
-52.076390
 20
-32.966556
 30
0.0
 10
-52.076390
 20
-32.966556
 30
0.0
  0
LWPOLYLINE
  5
11a
100
AcDbEntity
  8
Capa_1
 62
7
100
AcDbPolyline
 90
28
 70
0
 10
-44.571500
 20
-34.835436
 30
0.0
 10
-43.677815
 20
-34.788236
 30
0.0
 10
-42.931721
 20
-34.648476
 30
0.0
 10
-42.324450
 20
-34.417356
 30
0.0
 10
-41.847245
 20
-34.096476
 30
0.0
 10
-41.491335
 20
-33.687356
 30
0.0
 10
-41.247963
 20
-33.191436
 30
0.0
 10
-41.108369
 20
-32.610236
 30
0.0
 10
-41.063785
 20
-31.945356
 30
0.0
 10
-41.063785
 20
-30.895836
 30
0.0
 10
-41.108369
 20
-30.230956
 30
0.0
 10
-41.247963
 20
-29.649756
 30
0.0
 10
-41.491335
 20
-29.153836
 30
0.0
 10
-41.847245
 20
-28.744716
 30
0.0
 10
-42.324450
 20
-28.423836
 30
0.0
 10
-42.931721
 20
-28.192716
 30
0.0
 10
-43.677815
 20
-28.052956
 30
0.0
 10
-44.571500
 20
-28.005756
 30
0.0
 10
-54.160905
 20
-28.005756
 30
0.0
 10
-54.160905
 20
-38.630476
 30
0.0
 10
-52.076390
 20
-38.630476
 30
0.0
 10
-52.076390
 20
-34.834796
 30
0.0
 10
-49.517238
 20
-34.834796
 30
0.0
 10
-44.485395
 20
-38.630476
 30
0.0
 10
-40.747242
 20
-38.630476
 30
0.0
 10
-46.181732
 20
-34.834796
 30
0.0
 10
-44.571500
 20
-34.834796
 30
0.0
 10
-44.571500
 20
-34.834796
 30
0.0
  0
ENDSEC
  0
SECTION
  2
OBJECTS
  0
DICTIONARY
  5
C
330
0
100
AcDbDictionary
  3
ACAD_GROUP
350
D
  3
ACAD_MLINESTYLE
350
17
  0
DICTIONARY
  5
D
330
C
100
AcDbDictionary
  0
DICTIONARY
  5
1A
330
C
100
AcDbDictionary
  0
DICTIONARY
  5
17
330
C
100
AcDbDictionary
  3
STANDARD
350
18
  0
DICTIONARY
  5
19
330
C
100
AcDbDictionary
  0
ENDSEC
  0
EOF
